<mxfile host="app.diagrams.net" modified="2024-01-12T09:42:21.704Z" agent="Mozilla/5.0 (Windows NT 10.0; Win64; x64) AppleWebKit/537.36 (KHTML, like Gecko) Chrome/120.0.0.0 Safari/537.36" etag="W1LIUL4qF87Kl10VKovN" version="22.1.18" type="device">
  <diagram name="페이지-1" id="L1tUFDs-Mygwk9FD0Zfn">
    <mxGraphModel dx="1434" dy="772" grid="1" gridSize="10" guides="1" tooltips="1" connect="1" arrows="1" fold="1" page="1" pageScale="1" pageWidth="827" pageHeight="1169" math="0" shadow="0">
      <root>
        <mxCell id="0" />
        <mxCell id="1" parent="0" />
        <mxCell id="SQqoCfoB-rDrTpEpefiW-1" value="퀘스트 알림&lt;br&gt;시작" style="rounded=1;whiteSpace=wrap;html=1;arcSize=50;" vertex="1" parent="1">
          <mxGeometry width="160" height="80" as="geometry" />
        </mxCell>
      </root>
    </mxGraphModel>
  </diagram>
</mxfile>
